<svg width="16" height="18" viewBox="0 0 16 18" fill="none" xmlns="http://www.w3.org/2000/svg">
<path d="M4.92285 5.59863H6.15362V14.6176H4.92285V5.59863Z" fill="#FF3030"/>
<path d="M7.38477 5.59863H8.61553V14.6176H7.38477V5.59863Z" fill="#FF3030"/>
<path d="M9.8457 5.59863H11.0765V14.6176H9.8457V5.59863Z" fill="#FF3030"/>
<path d="M0 2.21777H16V3.34515H0V2.21777Z" fill="#FF3030"/>
<path d="M11.0357 2.78086H9.88694V1.65348C9.88694 1.31527 9.59976 1.05222 9.23053 1.05222H6.76899C6.39976 1.05222 6.11258 1.31527 6.11258 1.65348V2.78086H4.96387V1.65348C4.96387 0.751581 5.78438 0 6.76899 0H9.23053C10.2151 0 11.0357 0.751581 11.0357 1.65348V2.78086Z" fill="#FF3030"/>
<path d="M11.692 17.9993H4.30739C3.32278 17.9993 2.46124 17.2477 2.37919 16.3458L1.23047 2.81734L2.46124 2.74219L3.60996 16.2707C3.65098 16.6089 3.97919 16.8719 4.30739 16.8719H11.692C12.0612 16.8719 12.3894 16.5713 12.3894 16.2707L13.5382 2.74219L14.7689 2.81734L13.6202 16.3458C13.5382 17.2853 12.6766 17.9993 11.692 17.9993Z" fill="#FF3030"/>
</svg>
