<svg width="167" height="167" viewBox="0 0 167 167" fill="none" xmlns="http://www.w3.org/2000/svg">
<g clip-path="url(#clip0_268_11)">
<path d="M78.2691 0H88.7074C89.1257 0.0945898 89.5408 0.205487 89.9656 0.273983C94.724 1.0568 99.564 1.50691 104.231 2.66156C135.732 10.444 160.341 37.1216 165.71 69.1126C166.224 72.1525 166.567 75.225 166.988 78.2812V88.7188C166.89 89.1917 166.776 89.6646 166.697 90.1409C165.92 94.8443 165.469 99.6325 164.321 104.245C156.478 135.795 129.853 160.346 97.8679 165.725C94.8286 166.233 91.7598 166.579 88.7172 167H78.2691C77.8024 166.877 77.3289 166.782 76.8507 166.716C58.2487 165.196 41.7382 158.428 28.0546 145.812C4.47855 124.069 -4.3486 97.1014 1.99153 65.6584C8.60289 32.8325 36.055 6.82025 69.0988 1.27207C72.1414 0.750199 75.2101 0.424023 78.2691 0ZM91.0833 99.7434C90.3447 92.7241 94.5965 88.9145 99.7111 85.5125C102.652 83.5555 105.319 81.2364 108.091 79.051C120.908 68.956 119.647 46.212 104.306 37.9077C96.1358 33.4848 87.459 32.1866 78.3246 32.8977C64.2195 33.9969 54.3564 42.6372 51.6112 56.5256C51.085 59.1969 50.9314 61.9368 50.5948 64.719H70.7524C70.6822 61.3063 71.5515 57.9399 73.2656 54.9861C75.0402 51.8189 77.7723 50.2174 81.3019 49.9141C82.7627 49.8016 84.2301 49.8016 85.6909 49.9141C92.9004 50.4196 97.7502 58.1108 95.0639 64.8593C93.7808 68.1083 91.5549 70.9013 88.6715 72.8798C85.557 75.0554 82.5732 77.4136 79.4815 79.6251C74.0598 83.5033 71.442 88.7188 71.746 95.3988C71.8146 96.8339 71.746 98.2723 71.746 99.7434H91.0833ZM94.3874 122.389C94.5017 115.246 89.446 110.129 82.1287 109.995C75.3016 109.864 69.9093 115.028 69.7753 121.828C69.6348 129.004 74.6774 134.223 81.8901 134.347C89.1028 134.471 94.2697 129.5 94.3874 122.389Z" fill="black"/>
<path d="M91.0832 99.7438H71.7393C71.7393 98.2728 71.7982 96.8344 71.7393 95.3992C71.4354 88.7192 74.0532 83.5037 79.4749 79.6255C82.5666 77.4141 85.5503 75.0591 88.6648 72.8803C91.5561 70.9004 93.7882 68.1029 95.0736 64.8467C97.76 58.0982 92.9101 50.4071 85.7007 49.9015C84.2398 49.789 82.7725 49.789 81.3116 49.9015C77.7821 50.2048 75.0499 51.8063 73.2754 54.9735C71.5612 57.9273 70.6919 61.2937 70.7622 64.7064H50.5947C50.9215 61.9242 51.0849 59.1844 51.6111 56.513C54.3465 42.6246 64.2194 33.9843 78.3246 32.8851C87.4753 32.1741 96.1292 33.4722 104.306 37.8951C119.646 46.1995 120.908 68.9434 108.09 79.0384C105.319 81.2238 102.639 83.5527 99.711 85.4999C94.5964 88.9149 90.3446 92.7311 91.0832 99.7438Z" fill="white"/>
<path d="M94.3874 122.389C94.2697 129.5 89.0833 134.458 81.8902 134.344C74.6971 134.23 69.6348 129.001 69.7753 121.825C69.9093 115.025 75.3017 109.861 82.1287 109.992C89.446 110.129 94.5018 115.237 94.3874 122.389Z" fill="white"/>
</g>
<defs>
<clipPath id="clip0_268_11">
<rect width="167" height="167" fill="white"/>
</clipPath>
</defs>
</svg>
