<svg id="Layer_3" data-name="Layer 3" xmlns="http://www.w3.org/2000/svg" viewBox="0 0 207.81 193.15"><path d="M155,183.38H95a6.93,6.93,0,1,0,0,13.85h60a6.93,6.93,0,0,0,0-13.85Z" transform="translate(-21.09 -28.43)"/><path d="M155,161.53H95a6.93,6.93,0,0,0,0,13.86h60a6.93,6.93,0,0,0,0-13.86Z" transform="translate(-21.09 -28.43)"/><path d="M212.74,75.44h-22V35.35a6.92,6.92,0,0,0-6.92-6.92H66.22a6.92,6.92,0,0,0-6.92,6.92V75.44h-22A16.19,16.19,0,0,0,21.09,91.61V161.3a16.18,16.18,0,0,0,16.17,16.16h22v37.19a6.92,6.92,0,0,0,6.93,6.92H183.77a6.92,6.92,0,0,0,6.93-6.92V177.46h22a16.18,16.18,0,0,0,16.17-16.16V91.61A16.19,16.19,0,0,0,212.74,75.44ZM73.15,42.28h103.7V75.44H73.15Zm103.7,165.44H73.15V151.05h103.7Zm6.93-91.6H166.14a6.93,6.93,0,0,1,0-13.85h17.64a6.93,6.93,0,0,1,0,13.85Z" transform="translate(-21.09 -28.43)"/></svg>