<svg id="Layer_5" data-name="Layer 5" xmlns="http://www.w3.org/2000/svg" viewBox="0 0 217.43 193.04"><path d="M75.57,120.89a12.52,12.52,0,0,0,0-25H61.7A72.27,72.27,0,0,1,82,72a71.39,71.39,0,0,1,87.53,1.23,71.8,71.8,0,0,1,24.95,39.11,12.52,12.52,0,0,0,24.34-5.85A96.54,96.54,0,0,0,46,73.69Q43.47,77.25,41.31,81V61a12.52,12.52,0,1,0-25,0v47.4A12.52,12.52,0,0,0,28.8,120.89Z" transform="translate(-16.28 -32.62)"/><path d="M221.2,137.39H174.43a12.52,12.52,0,0,0,0,25h13.83A71.49,71.49,0,0,1,55.52,145.94a12.52,12.52,0,0,0-24.34,5.85,96.42,96.42,0,0,0,93.75,73.87h.13a96.52,96.52,0,0,0,83.63-48.45v20.1a12.52,12.52,0,1,0,25,0v-47.4A12.53,12.53,0,0,0,221.2,137.39Z" transform="translate(-16.28 -32.62)"/></svg>