<svg id="Layer_6" data-name="Layer 6" xmlns="http://www.w3.org/2000/svg" viewBox="0 0 188.43 188.43"><path d="M165.84,188.19H99.59a5.52,5.52,0,0,0,0,11h66.25a5.52,5.52,0,1,0,0-11Z" transform="translate(-38.5 -32.89)"/><path d="M165.84,144H99.59a5.52,5.52,0,0,0,0,11h66.25a5.52,5.52,0,0,0,0-11Z" transform="translate(-38.5 -32.89)"/><path d="M165.84,166.11H99.59a5.52,5.52,0,0,0,0,11h66.25a5.52,5.52,0,1,0,0-11Z" transform="translate(-38.5 -32.89)"/><rect x="44.53" width="77.28" height="47.84"/><path d="M225.31,63.94,195.87,34.5a5.54,5.54,0,0,0-3.9-1.61H171.36V86.25a5.52,5.52,0,0,1-5.52,5.52H77.51A5.52,5.52,0,0,1,72,86.25V32.89H44a5.52,5.52,0,0,0-5.52,5.52V215.79A5.52,5.52,0,0,0,44,221.31H221.41a5.52,5.52,0,0,0,5.52-5.52V67.85A5.52,5.52,0,0,0,225.31,63.94ZM182.4,210.27H83V133H182.4Z" transform="translate(-38.5 -32.89)"/></svg>