<svg id="Layer_9" data-name="Layer 9" xmlns="http://www.w3.org/2000/svg" viewBox="0 0 168 168"><path d="M111,118a7,7,0,0,0,0,14h84a7,7,0,0,0,0-14Z" transform="translate(-41 -41)"/><path d="M157.12,148.24c-3.34-3-8.36-3.36-12.45.84l-44.29,44.31c-.1.09-.7.6-.79.7A8.66,8.66,0,0,0,97,200.25a8.77,8.77,0,0,0,8.75,8.75h94.5a8.77,8.77,0,0,0,5.95-15.19Z" transform="translate(-41 -41)"/><path d="M144.39,100.62c.09.1.61.71.71.8a8.69,8.69,0,0,0,6.15,2.58,8.9,8.9,0,0,0,5.95-2.31l48.94-45.45A8.76,8.76,0,0,0,200.25,41h-94.5A8.77,8.77,0,0,0,97,49.75a9,9,0,0,0,3.08,6.58Z" transform="translate(-41 -41)"/><path d="M86.76,132.4A5.24,5.24,0,0,0,81,133.54l-15.7,15.7a52.85,52.85,0,0,1,9.86-73,7,7,0,0,0-8.77-10.92,66.83,66.83,0,0,0-11.07,93.85L42.54,172a5.25,5.25,0,0,0,3.71,9h38.5A5.25,5.25,0,0,0,90,175.75v-38.5A5.25,5.25,0,0,0,86.76,132.4Z" transform="translate(-41 -41)"/></svg>