<svg id="Layer_8" data-name="Layer 8" xmlns="http://www.w3.org/2000/svg" viewBox="0 0 168 168"><path d="M125,104a7,7,0,0,0-7,7v84a7,7,0,0,0,14,0V111A7,7,0,0,0,125,104Z" transform="translate(-41 -41)"/><path d="M193.67,100.08l-44.32,44.33-.75.67a8.62,8.62,0,0,0-2.6,6.17,8.85,8.85,0,0,0,2.31,5.95l45.44,48.94a8.86,8.86,0,0,0,6.5,2.86,8.77,8.77,0,0,0,8.75-8.75v-94.5C209,98.62,200.15,93.39,193.67,100.08Z" transform="translate(-41 -41)"/><path d="M56.6,100.37c-.08-.1-.59-.69-.69-.78A8.71,8.71,0,0,0,41,105.75v94.5a8.77,8.77,0,0,0,15.19,5.95l45.57-49.08a8.78,8.78,0,0,0,2.24-5.87,8.9,8.9,0,0,0-3.07-6.58Z" transform="translate(-41 -41)"/><path d="M181,84.75V46.25a5.25,5.25,0,0,0-9-3.71L159.21,55.37A66.8,66.8,0,0,0,65.36,66.44,7,7,0,1,0,76.27,75.2a52.86,52.86,0,0,1,73-9.86L133.54,81a5.25,5.25,0,0,0,3.71,9h38.5A5.25,5.25,0,0,0,181,84.75Z" transform="translate(-41 -41)"/></svg>